<mxfile host="app.diagrams.net" modified="2024-04-21T12:01:24.173Z" agent="Mozilla/5.0 (Windows NT 10.0; Win64; x64) AppleWebKit/537.36 (KHTML, like Gecko) Chrome/124.0.0.0 Safari/537.36" version="24.2.3" etag="L7p6YhdozHY4r4iD6m2l" type="github">
  <diagram name="Page-1" id="7Z6VMQOYitkByYP8naLp">
    <mxGraphModel>
      <root>
        <mxCell id="0" />
        <mxCell id="1" parent="0" />
      </root>
    </mxGraphModel>
  </diagram>
</mxfile>
